<?xml version="1.0" standalone="no"?>
<!DOCTYPE svg PUBLIC "-//W3C//DTD SVG 20010904//EN"
 "http://www.w3.org/TR/2001/REC-SVG-20010904/DTD/svg10.dtd">
<svg version="1.0" xmlns="http://www.w3.org/2000/svg"
 width="982.000000pt" height="982.000000pt" viewBox="0 0 982.000000 982.000000"
 preserveAspectRatio="xMidYMid meet">
<metadata>
Created by potrace 1.14, written by Peter Selinger 2001-2017
</metadata>
<g transform="translate(0.000000,982.000000) scale(0.100000,-0.100000)"
fill="#000000" stroke="none">
<path d="M6199 9796 c-56 -30 -126 -70 -149 -86 -14 -9 -32 -20 -40 -23 -8 -4
-37 -21 -65 -37 -27 -17 -58 -33 -67 -36 -10 -4 -18 -10 -18 -15 0 -5 -4 -9
-9 -9 -5 0 -49 -23 -98 -51 -82 -48 -124 -72 -215 -123 -31 -18 -204 -118
-259 -151 -94 -55 -203 -115 -210 -115 -4 0 -9 -3 -11 -8 -1 -4 -59 -39 -128
-79 -69 -39 -141 -80 -160 -92 -67 -38 -255 -146 -305 -174 -27 -16 -60 -35
-72 -43 -12 -8 -44 -26 -70 -41 -26 -14 -61 -34 -78 -44 -16 -10 -52 -31 -80
-47 -265 -152 -461 -266 -490 -283 -16 -10 -37 -22 -45 -26 -8 -4 -42 -23 -75
-42 -33 -20 -73 -43 -90 -51 -16 -8 -32 -18 -35 -21 -3 -3 -30 -19 -60 -35
-30 -16 -57 -31 -60 -34 -10 -11 -292 -170 -301 -170 -5 0 -9 -4 -9 -10 0 -5
-4 -10 -10 -10 -5 0 -42 -19 -82 -43 -40 -24 -80 -46 -88 -50 -8 -4 -31 -17
-50 -28 -19 -12 -98 -58 -175 -103 -77 -44 -152 -88 -166 -96 -14 -8 -49 -28
-77 -44 l-52 -29 0 -3397 0 -3396 82 -47 c46 -26 103 -59 128 -74 25 -14 61
-35 80 -46 19 -10 72 -41 118 -68 45 -27 85 -49 89 -49 4 0 14 -6 22 -14 9 -7
48 -30 86 -51 39 -21 82 -46 97 -56 14 -11 28 -19 31 -19 3 0 38 -19 79 -43
40 -24 93 -55 118 -69 25 -14 117 -67 205 -118 88 -51 162 -94 165 -95 3 -2
24 6 46 18 64 34 318 181 324 187 3 3 23 14 45 25 22 11 42 22 45 25 3 3 64
39 135 80 72 40 133 79 137 84 4 6 8 8 8 4 0 -6 89 42 150 82 8 6 34 20 58 32
23 12 42 26 42 30 0 4 9 8 19 8 11 0 23 4 26 10 3 5 23 17 43 27 20 9 39 20
42 23 3 3 37 24 75 45 39 22 78 44 87 50 19 11 99 58 172 100 28 15 72 41 98
56 27 16 53 29 58 29 6 0 10 5 10 10 0 6 6 10 14 10 8 0 21 6 28 13 8 6 23 17
33 23 66 37 114 64 145 82 19 11 52 30 72 41 65 35 83 46 88 51 3 3 23 14 45
25 22 11 42 23 45 26 3 3 36 23 75 45 38 21 79 44 90 51 11 7 27 15 35 19 8 4
59 34 112 66 53 32 102 58 108 58 5 0 10 5 10 10 0 6 4 10 10 10 8 0 138 72
180 100 8 6 22 13 30 17 8 4 86 49 173 100 88 51 161 93 163 93 2 0 38 21 81
46 43 25 85 49 93 54 150 86 606 350 638 369 l42 26 0 756 0 755 -46 25 c-25
13 -58 30 -72 38 -15 8 -28 18 -30 23 -2 4 -7 8 -11 8 -5 0 -48 23 -97 51 -49
29 -107 62 -129 74 -22 13 -123 71 -225 130 -102 59 -201 116 -220 127 -19 11
-41 25 -47 30 -7 6 -13 7 -13 2 0 -5 -4 -4 -8 2 -6 10 -29 24 -121 73 -14 8
-28 17 -31 20 -3 4 -16 12 -30 18 -14 7 -47 26 -75 43 -27 16 -57 33 -65 37
-8 3 -17 9 -20 12 -3 3 -19 13 -36 22 l-31 16 -163 -93 c-89 -52 -166 -94
-171 -94 -5 0 -9 -3 -9 -8 0 -4 -17 -15 -37 -25 -21 -10 -58 -30 -83 -45 -25
-16 -70 -42 -100 -58 -30 -17 -74 -43 -97 -57 -24 -15 -47 -27 -52 -27 -5 0
-11 -3 -13 -7 -3 -8 -69 -46 -115 -68 -13 -5 -23 -13 -23 -17 0 -5 -4 -8 -9
-8 -6 0 -98 -52 -207 -115 -108 -63 -204 -117 -213 -120 -15 -4 -16 81 -16
1121 0 1110 0 1126 20 1140 11 8 96 58 190 112 93 53 172 99 175 102 3 3 23
15 45 27 42 22 47 25 193 109 49 29 100 58 113 65 13 8 26 16 29 19 3 3 21 13
40 24 19 10 51 28 70 39 19 11 55 31 79 45 25 14 68 38 95 55 28 17 60 35 71
41 131 73 301 172 303 178 2 5 8 8 14 8 6 0 51 24 102 54 83 49 173 101 251
146 17 9 50 29 75 44 25 15 53 29 63 33 9 3 17 9 17 14 0 5 4 9 10 9 5 0 42
19 82 43 40 24 80 46 88 50 8 4 29 16 45 26 17 11 50 30 75 42 25 13 47 25 50
29 3 3 52 32 110 65 58 33 107 62 110 65 3 3 26 16 53 29 l47 24 0 757 0 756
-42 24 c-24 13 -76 43 -115 67 -40 23 -77 43 -83 43 -5 0 -10 4 -10 8 0 4 -12
13 -27 20 -32 14 -105 54 -113 62 -3 3 -15 11 -27 18 -13 6 -33 18 -45 25 -13
6 -25 14 -28 17 -3 3 -25 15 -50 28 -25 13 -67 37 -95 54 -27 17 -70 41 -95
55 -25 13 -58 33 -75 43 -16 10 -41 25 -55 33 -83 46 -129 73 -162 94 -21 12
-39 23 -42 23 -2 0 -33 17 -67 38 -162 97 -173 102 -200 88z"/>
</g>
</svg>
